HIERARCHY
ROOT SpineBase
{
  OFFSET 0.000000 0.000000 0.000000
  CHANNELS 6 Xposition Yposition Zposition Zrotation Xrotation Yrotation
  JOINT SpineMid
  {
    OFFSET 0.000000 32.206741 0.000000
    CHANNELS 3 Zrotation Xrotation Yrotation
    JOINT SpineShoulder
    {
      OFFSET -0.199327 23.834650 -0.733942
      CHANNELS 3 Zrotation Xrotation Yrotation
      JOINT Neck
      {
        OFFSET -0.136540 7.860329 -0.560203
        CHANNELS 3 Zrotation Xrotation Yrotation
        JOINT Head
        {
          OFFSET -5.959201 11.776283 3.196547
          CHANNELS 3 Zrotation Xrotation Yrotation
          End Site
          {
            OFFSET 0 0 0
          }
        }
      }
      JOINT ShoulderLeft
      {
        OFFSET -5.320098 -3.248672 15.836826
        CHANNELS 3 Zrotation Xrotation Yrotation
        JOINT ElbowLeft
        {
          OFFSET -3.276213 -28.405614 7.160643
          CHANNELS 3 Zrotation Xrotation Yrotation
          JOINT WristLeft
          {
            OFFSET -1.126958 -26.954812 -7.550464
            CHANNELS 3 Zrotation Xrotation Yrotation
            JOINT HandLeft
            {
              OFFSET -0.764955 -3.164873 0.925437
              CHANNELS 3 Zrotation Xrotation Yrotation
              JOINT HandTipLeft
              {
                OFFSET 1.335151 -5.815695 -2.161869
                CHANNELS 3 Zrotation Xrotation Yrotation
                End Site
                {
                  OFFSET 0 0 0
                }
              }
              JOINT ThumbLeft
              {
                OFFSET -1.047363 0.022206 -0.796609
                CHANNELS 3 Zrotation Xrotation Yrotation
                End Site
                {
                  OFFSET 0 0 0
                }
              }
            }
          }
        }
      }
      JOINT ShoulderRight
      {
        OFFSET 3.397439 -5.423821 -14.847904
        CHANNELS 3 Zrotation Xrotation Yrotation
        JOINT ElbowRight
        {
          OFFSET 1.205897 -22.532364 -6.786573
          CHANNELS 3 Zrotation Xrotation Yrotation
          JOINT WristRight
          {
            OFFSET -7.448192 -20.713239 0.330138
            CHANNELS 3 Zrotation Xrotation Yrotation
            JOINT HandRight
            {
              OFFSET -1.213615 -7.986793 3.136639
              CHANNELS 3 Zrotation Xrotation Yrotation
              JOINT HandTipRight
              {
                OFFSET -3.959984 -6.534281 0.699317
                CHANNELS 3 Zrotation Xrotation Yrotation
                End Site
                {
                  OFFSET 0 0 0
                }
              }
              JOINT ThumbRight
              {
                OFFSET 5.489538 0.725012 -0.240882
                CHANNELS 3 Zrotation Xrotation Yrotation
                End Site
                {
                  OFFSET 0 0 0
                }
              }
            }
          }
        }
      }
    }
  }
  JOINT HipLeft
  {
    OFFSET -2.973518 -0.474660 2.938306
    CHANNELS 3 Zrotation Xrotation Yrotation
    JOINT KneeLeft
    {
      OFFSET 2.362132 -32.832316 11.373271
      CHANNELS 3 Zrotation Xrotation Yrotation
      JOINT AnkleLeft
      {
        OFFSET 10.209920 -34.964202 4.327373
        CHANNELS 3 Zrotation Xrotation Yrotation
        JOINT FootLeft
        {
          OFFSET -5.333172 -7.150807 -1.848428
          CHANNELS 3 Zrotation Xrotation Yrotation
          End Site
          {
            OFFSET 0 0 0
          }
        }
      }
    }
  }
  JOINT HipRight
  {
    OFFSET 1.517140 2.265365 -9.872181
    CHANNELS 3 Zrotation Xrotation Yrotation
    JOINT KneeRight
    {
      OFFSET 9.221065 -34.274021 -0.802550
      CHANNELS 3 Zrotation Xrotation Yrotation
      JOINT AnkleRight
      {
        OFFSET 8.904493 -36.738167 4.228633
        CHANNELS 3 Zrotation Xrotation Yrotation
        JOINT FootRight
        {
          OFFSET -4.216881 -7.813298 -3.494749
          CHANNELS 3 Zrotation Xrotation Yrotation
          End Site
          {
            OFFSET 0 0 0
          }
        }
      }
    }
  }
}
MOTION
Frames: 16
Frame Time: 0.033333
55.770311 76.667348 268.374095 -0.000000 0.000000 70.682117 -0.000000 0.000000 -70.682117 -0.000000 0.000000 0.000000 -0.000000 0.000000 0.000000 0.000000 0.000000 0.000000 -0.000000 0.000000 0.000000 -0.000000 0.000000 0.000000 -0.000000 0.000000 0.000000 -0.000000 0.000000 0.000000 0.000000 0.000000 0.000000 0.000000 0.000000 0.000000 -0.000000 0.000000 0.000000 -0.000000 0.000000 0.000000 -0.000000 0.000000 0.000000 -0.000000 0.000000 0.000000 0.000000 0.000000 0.000000 0.000000 0.000000 0.000000 -0.000000 0.000000 -70.682117 -0.000000 0.000000 0.000000 -0.000000 0.000000 0.000000 0.000000 0.000000 0.000000 -0.000000 0.000000 -70.682117 -0.000000 0.000000 0.000000 -0.000000 0.000000 0.000000 0.000000 0.000000 0.000000
55.757853 76.640637 268.416648 0.030775 0.008384 70.673944 -0.018096 0.026267 -70.673943 -0.000000 0.000000 0.000000 -0.000000 0.000000 0.000000 0.000000 0.000000 0.000000 -0.000000 0.000000 0.000000 -0.577709 0.568717 0.140691 5.203738 12.013016 -2.404024 -5.329787 -14.359400 1.123379 0.000000 0.000000 0.000000 0.000000 0.000000 0.000000 -0.000000 0.000000 0.000000 -0.000000 0.000000 0.000000 -0.000000 0.000000 0.000000 -0.000000 0.000000 0.000000 0.000000 0.000000 0.000000 0.000000 0.000000 0.000000 -0.018096 0.026267 -70.673943 -0.000000 0.000000 0.000000 1.315044 2.119081 -1.952074 0.000000 0.000000 0.000000 -0.018096 0.026267 -70.673943 -0.000000 0.000000 0.000000 0.157007 0.871129 -0.540141 0.000000 0.000000 0.000000
55.735519 76.622343 268.464650 0.053817 0.008398 70.714396 -0.025701 0.048023 -70.714389 -0.000000 0.000000 0.000000 -0.000000 0.000000 0.000000 0.000000 0.000000 0.000000 -0.000000 0.000000 0.000000 -1.120850 1.177310 0.275364 9.413823 20.460685 -4.899646 -9.239026 -24.918464 1.126536 0.000000 0.000000 0.000000 0.000000 0.000000 0.000000 -0.000000 0.000000 0.000000 -0.000000 0.000000 0.000000 -0.000000 0.000000 0.000000 -0.654507 -0.472053 0.212507 0.000000 0.000000 0.000000 0.000000 0.000000 0.000000 -0.025701 0.048023 -70.714389 -0.000000 0.000000 0.000000 2.387070 3.637444 -3.430836 0.000000 0.000000 0.000000 -0.025701 0.048023 -70.714389 -0.000000 0.000000 0.000000 0.231233 1.617755 -0.974743 0.000000 0.000000 0.000000
55.703309 76.612466 268.518102 0.069137 0.000045 70.804709 -0.022774 0.065278 -70.804696 -0.000000 0.000000 0.000000 -0.000000 0.000000 0.000000 0.000000 0.000000 0.000000 -0.000000 0.000000 0.000000 -1.627610 1.825809 0.403502 12.708303 26.291432 -7.160761 -12.187039 -32.460050 0.699549 0.000000 0.000000 0.000000 0.000000 0.000000 0.000000 -0.000000 0.000000 0.000000 -0.000000 0.000000 0.000000 0.483757 0.756158 0.072125 -1.395644 -1.490248 0.250491 0.000000 0.000000 0.000000 0.000000 0.000000 0.000000 -0.022774 0.065278 -70.804696 -0.000000 0.000000 0.000000 3.195186 4.612890 -4.441027 0.000000 0.000000 0.000000 -0.022774 0.065278 -70.804696 -0.000000 0.000000 0.000000 0.220490 2.243656 -1.303885 0.000000 0.000000 0.000000
55.661222 76.611006 268.577005 0.076742 -0.016676 70.946160 -0.009291 0.077981 -70.946143 -0.000000 0.000000 0.000000 -0.000000 0.000000 0.000000 0.000000 0.000000 0.000000 -0.000000 0.000000 0.000000 -2.096241 2.514076 0.524501 15.187691 30.363494 -9.086434 -14.358707 -37.762722 0.237559 0.000000 0.000000 0.000000 0.000000 0.000000 0.000000 -0.000000 0.000000 0.000000 -0.000000 0.000000 0.000000 0.578556 1.013467 0.068387 -1.699360 -2.029418 0.385928 0.000000 0.000000 0.000000 0.000000 0.000000 0.000000 -0.009291 0.077981 -70.946143 -0.000000 0.000000 0.000000 3.730373 5.088766 -4.988957 0.000000 0.000000 0.000000 0.767730 -0.088013 -70.772860 -0.412635 -0.679011 -0.175660 0.123059 2.751970 -1.527916 0.000000 0.000000 0.000000
55.609259 76.617963 268.641357 0.076632 -0.041775 71.140066 0.014760 0.086022 -71.140050 -0.000000 0.000000 0.000000 -0.000000 0.000000 0.000000 0.000000 0.000000 0.000000 -0.000000 0.000000 0.000000 -2.525065 3.241798 0.637668 16.937903 33.271609 -10.676959 -15.793475 -41.371070 0.002666 0.000000 0.000000 0.000000 0.000000 0.000000 0.000000 -0.000000 0.000000 0.000000 -0.000000 0.000000 0.000000 0.639863 1.273004 0.051008 -1.922490 -2.589423 0.548866 0.000000 0.000000 0.000000 0.000000 0.000000 0.000000 0.014760 0.086022 -71.140050 -0.000000 0.000000 0.000000 3.990892 5.090162 -5.078645 0.000000 0.000000 0.000000 1.002024 -0.163587 -70.923055 -0.558606 -0.851454 -0.220477 -0.062378 3.145066 -1.647396 0.000000 0.000000 0.000000
55.530903 76.641316 268.733976 0.059071 -0.092174 71.468724 0.068621 0.085304 -71.468727 -0.000000 0.000000 0.000000 -0.000000 0.000000 0.000000 0.000000 0.000000 0.000000 -0.000000 0.000000 0.000000 -3.282379 4.009582 0.857470 18.562330 39.658456 -14.388352 -17.164614 -49.585757 0.016217 0.000000 0.000000 0.000000 0.000000 0.000000 0.000000 -0.000000 0.000000 0.000000 -0.000000 0.000000 0.000000 0.683887 1.456966 0.038716 -2.195772 -3.454202 0.919918 0.000000 0.000000 0.000000 0.000000 0.000000 0.000000 0.068621 0.085304 -71.468727 -0.000000 0.000000 0.000000 3.441031 4.023475 -4.065125 0.000000 0.000000 0.000000 1.339381 -0.294705 -71.193176 -0.769441 -1.080397 -0.280484 -0.551272 3.612777 -1.658698 0.000000 0.000000 0.000000
55.457440 76.668367 268.818914 0.045371 -0.139207 71.848694 0.118145 0.086479 -71.848728 -0.000000 0.000000 0.000000 -0.000000 0.000000 0.000000 0.000000 0.000000 0.000000 -0.000000 0.000000 0.000000 -3.619775 5.771334 0.940769 17.596156 38.960385 -14.242034 -16.687631 -48.934496 1.067225 0.000000 0.000000 0.000000 0.000000 0.000000 0.000000 -0.000000 0.000000 0.000000 -0.000000 0.000000 0.000000 0.736354 1.718804 0.017066 -2.378681 -3.905027 1.019554 0.000000 0.000000 0.000000 0.000000 0.000000 0.000000 0.118145 0.086479 -71.848728 -0.000000 0.000000 0.000000 2.373426 1.706537 -1.944174 0.000000 0.000000 0.000000 1.643318 -0.426289 -71.520609 -0.969836 -1.283988 -0.334464 -0.613606 4.965593 -2.328360 0.000000 0.000000 0.000000
55.385597 76.706484 268.868584 0.029931 -0.155035 72.203472 0.138468 0.075883 -72.203524 -0.000000 0.000000 0.000000 -0.000000 0.000000 0.000000 0.000000 0.000000 0.000000 -0.000000 0.000000 0.000000 -3.666072 7.067253 0.940342 16.862509 36.853867 -13.274695 -15.365565 -42.519620 3.272292 0.000000 0.000000 0.000000 0.000000 0.000000 0.000000 -0.000000 0.000000 0.000000 -0.000000 0.000000 0.000000 0.610253 2.146221 -0.098734 -2.299226 -4.736273 1.346595 0.000000 0.000000 0.000000 0.000000 0.000000 0.000000 0.138468 0.075883 -72.203524 -0.000000 0.000000 0.000000 2.497649 1.134415 -1.537518 0.000000 0.000000 0.000000 1.821655 -0.569616 -71.845633 -1.137903 -1.398264 -0.364524 -1.400715 4.201613 -1.554854 0.000000 0.000000 0.000000
55.321339 76.734043 268.926339 0.009532 -0.202883 72.509959 0.190639 0.070066 -72.510059 -0.000000 0.000000 0.000000 -0.000000 0.000000 0.000000 0.000000 0.000000 0.000000 -0.000000 0.000000 0.000000 -3.567160 7.311297 0.904049 13.391651 36.749739 -13.225473 -7.929574 -43.129151 7.147004 0.000000 0.000000 0.000000 0.000000 0.000000 0.000000 -0.000000 0.000000 0.000000 -0.000000 0.000000 0.000000 0.478158 2.432337 -0.193757 -2.552110 -4.778100 1.222629 0.000000 0.000000 0.000000 0.000000 0.000000 0.000000 0.190639 0.070066 -72.510059 -0.000000 0.000000 0.000000 3.094026 -0.085138 -0.749408 0.000000 0.000000 0.000000 1.991865 -0.681575 -72.129687 -1.268203 -1.483664 -0.387180 -2.260251 2.208742 -0.134940 0.000000 0.000000 0.000000
55.262326 76.745157 268.996212 -0.007576 -0.262450 72.676744 0.252801 0.070915 -72.676918 -0.000000 0.000000 0.000000 -0.000000 0.000000 0.000000 0.000000 0.000000 0.000000 -0.000000 0.000000 0.000000 -3.102429 6.971939 0.752729 10.154782 29.447760 -9.934989 -5.803622 -34.081309 7.028334 0.000000 0.000000 0.000000 0.000000 0.000000 0.000000 -0.000000 0.000000 0.000000 -0.000000 0.000000 0.000000 0.382719 2.713892 -0.273908 -2.651046 -5.091864 1.275461 0.000000 0.000000 0.000000 0.000000 0.000000 0.000000 0.252801 0.070915 -72.676918 -0.000000 0.000000 0.000000 2.396666 -0.844110 0.028100 0.000000 0.000000 0.000000 2.146537 -0.752578 -72.278200 -1.360964 -1.553197 -0.405900 -2.684566 0.116953 1.125810 0.000000 0.000000 0.000000
55.220593 76.754577 269.066143 -0.010007 -0.327550 72.762126 0.315803 0.087507 -72.762396 -0.000000 0.000000 0.000000 -0.000000 0.000000 0.000000 0.000000 0.000000 0.000000 -0.000000 0.000000 0.000000 -2.881457 6.549341 0.686360 7.497611 26.607455 -8.941717 -3.508258 -28.739849 7.999735 0.000000 0.000000 0.000000 0.000000 0.000000 0.000000 -0.000000 0.000000 0.000000 -0.000000 0.000000 0.000000 0.291363 2.824033 -0.325235 -2.321420 -5.126057 1.323950 0.000000 0.000000 0.000000 0.000000 0.000000 0.000000 0.315803 0.087507 -72.762396 -0.000000 0.000000 0.000000 2.231566 -0.325295 -0.333051 0.000000 0.000000 0.000000 2.268743 -0.766510 -72.351175 -1.406039 -1.602089 -0.419308 -2.834458 -2.234698 2.407499 0.000000 0.000000 0.000000
55.191050 76.759283 269.125941 0.003262 -0.386021 72.792906 0.367778 0.117310 -72.793272 -0.000000 0.000000 0.000000 -0.000000 0.000000 0.000000 0.000000 0.000000 0.000000 -0.000000 0.000000 0.000000 -2.625612 6.198563 0.608565 5.293619 23.179774 -7.857282 -0.865714 -25.239352 7.991868 0.000000 0.000000 0.000000 0.000000 0.000000 0.000000 -0.000000 0.000000 0.000000 -0.000000 0.000000 0.000000 0.286684 2.925155 -0.342880 -2.123286 -4.915275 1.191346 0.000000 0.000000 0.000000 0.000000 0.000000 0.000000 0.367778 0.117310 -72.793272 -0.000000 0.000000 0.000000 2.016826 0.774451 -1.125397 0.000000 0.000000 0.000000 2.333185 -0.751205 -72.380907 -1.422814 -1.610305 -0.421488 -2.670726 -4.407942 3.487231 0.000000 0.000000 0.000000
55.158841 76.756098 269.184330 0.015767 -0.450878 72.804127 0.426063 0.148358 -72.804617 -0.000000 0.000000 0.000000 -0.000000 0.000000 0.000000 0.000000 0.000000 0.000000 -0.000000 0.000000 0.000000 -2.601904 4.841273 0.628395 7.428860 27.594005 -8.888126 -1.352875 -29.763568 7.770544 0.000000 0.000000 0.000000 0.000000 0.000000 0.000000 -0.000000 0.000000 0.000000 -0.000000 0.000000 0.000000 0.184346 2.793068 -0.360129 -2.017706 -4.571339 1.095476 0.000000 0.000000 0.000000 0.000000 0.000000 0.000000 1.269793 0.317917 -72.715934 -0.088811 -0.855997 -0.092779 1.927987 2.213583 -2.203171 0.000000 0.000000 0.000000 2.420704 -0.733996 -72.386986 -1.444702 -1.634124 -0.428041 -2.570499 -5.822437 4.207181 0.000000 0.000000 0.000000
55.129311 76.749886 269.236402 0.034691 -0.509597 72.780192 0.476487 0.183995 -72.780803 -0.000000 0.000000 0.000000 0.891023 -0.079655 -0.280501 0.000000 0.000000 0.000000 -0.000000 0.000000 0.000000 -2.407153 4.295487 0.578404 6.022675 25.463206 -8.082200 -0.157418 -28.887521 7.221397 0.000000 0.000000 0.000000 0.000000 0.000000 0.000000 -0.000000 0.000000 0.000000 -0.000000 0.000000 0.000000 0.105081 2.878792 -0.402935 -2.186705 -4.091468 0.766087 0.000000 0.000000 0.000000 0.000000 0.000000 0.000000 1.436102 0.333719 -72.666818 -0.143021 -0.960628 -0.119520 2.407428 3.440267 -3.286366 0.000000 0.000000 0.000000 2.508621 -0.703089 -72.355487 -1.461502 -1.667613 -0.437381 -2.262172 -6.667645 4.550518 0.000000 0.000000 0.000000
55.097662 76.742906 269.278347 0.052510 -0.558117 72.723016 0.517342 0.215895 -72.723735 -0.000000 0.000000 0.000000 1.063810 -0.042792 -0.308606 0.000000 0.000000 0.000000 -0.000000 0.000000 0.000000 -2.324109 3.644932 0.567086 5.953419 25.121083 -7.815091 -0.162704 -27.927751 6.887721 0.000000 0.000000 0.000000 0.000000 0.000000 0.000000 -0.000000 0.000000 0.000000 -0.000000 0.000000 0.000000 -0.027730 2.895339 -0.454732 -2.129718 -3.712107 0.580477 0.000000 0.000000 0.000000 0.000000 0.000000 0.000000 1.560327 0.334533 -72.586088 -0.199002 -1.030665 -0.144447 3.194289 4.447700 -4.313194 0.000000 0.000000 0.000000 2.597763 -0.674903 -72.288087 -1.481726 -1.710747 -0.449437 -1.549385 -6.613299 4.253699 0.000000 0.000000 0.000000
